<?xml version="1.0" ?><svg id="Layer_1" style="enable-background:new 0 0 595.3 595.3;" version="1.1" viewBox="0 0 595.3 595.3" xml:space="preserve" xmlns="http://www.w3.org/2000/svg" xmlns:xlink="http://www.w3.org/1999/xlink"><style type="text/css">
	.st0{fill:#58595B;}
	.st1{fill:#3A1811;}
	.st2{fill:#726658;}
	.st3{fill:#0DB4E7;}
	.st4{fill:#009DD4;}
	.st5{fill:#009444;}
	.st6{fill:#FBB040;}
	.st7{fill:#EFF8F5;}
	.st8{fill:#D81F26;}
	.st9{fill:#BCBEC0;}
	.st10{fill:#735032;}
	.st11{fill:#1C75BC;}
	.st12{fill:#FFD128;}
	.st13{fill:#D1AE23;}
	.st14{fill:#F9ED32;}
	.st15{fill:#939598;}
	.st16{fill:#9B8579;}
	.st17{fill:#F1B279;}
	.st18{fill:#603913;}
	.st19{fill:#754C29;}
	.st20{fill:#8B5E3C;}
	.st21{fill:#C49A6C;}
	.st22{fill:#F7941E;}
	.st23{fill:#00AEEF;}
	.st24{fill:#FAF5AE;}
	.st25{fill:#F5F7D5;}
	.st26{fill:#7ABE90;}
	.st27{fill:#BFA863;}
	.st28{fill:#2B3990;}
	.st29{fill:#EF3824;}
	.st30{fill:#BE1E2D;}
	.st31{fill:#A67A44;}
	.st32{fill:#00A388;}
	.st33{fill:#ABE0F1;}
	.st34{fill:#594A42;}
</style><g><g><circle class="st8" cx="299.8" cy="300.8" r="217.8"/><path class="st1" d="M299.8,523.6c-59.5,0-115.5-23.2-157.5-65.3c-42.1-42.1-65.3-98-65.3-157.5s23.2-115.5,65.3-157.5    c42.1-42.1,98-65.3,157.5-65.3c59.5,0,115.5,23.2,157.5,65.3c42.1,42.1,65.3,98,65.3,157.5s-23.2,115.5-65.3,157.5    C415.3,500.4,359.3,523.6,299.8,523.6z M299.8,88C182.5,88,87,183.4,87,300.8s95.5,212.8,212.8,212.8    c117.3,0,212.8-95.5,212.8-212.8S417.2,88,299.8,88z"/></g><g><path class="st1" d="M299.8,502.7c-1.4,0-2.5-1.1-2.5-2.5s1.1-2.5,2.5-2.5c108.6,0,196.9-88.3,196.9-196.9c0-1.4,1.1-2.5,2.5-2.5    s2.5,1.1,2.5,2.5C501.7,412.1,411.2,502.7,299.8,502.7z"/></g><g><path class="st1" d="M481.6,221.1c-1,0-1.9-0.5-2.3-1.5c-5.4-11.9-12.1-23.4-19.8-34.1c-11.1-15.3-24.3-29-39.3-40.6    c-14.1-10.9-29.5-19.8-45.9-26.5c-1.3-0.5-1.9-2-1.4-3.3c0.5-1.3,2-1.9,3.3-1.4c16.8,6.9,32.7,16,47.1,27.2    c15.3,11.9,28.9,25.9,40.3,41.6c7.9,10.9,14.7,22.7,20.3,34.9c0.6,1.3,0,2.7-1.2,3.3C482.3,221,481.9,221.1,481.6,221.1z"/></g><g><circle class="st24" cx="299.8" cy="300.8" r="172.5"/><path class="st1" d="M299.8,478.3c-97.9,0-177.5-79.6-177.5-177.5c0-97.9,79.6-177.5,177.5-177.5c97.9,0,177.5,79.6,177.5,177.5    C477.3,398.6,397.7,478.3,299.8,478.3z M299.8,133.3c-92.3,0-167.5,75.1-167.5,167.5s75.1,167.5,167.5,167.5    s167.5-75.1,167.5-167.5S392.2,133.3,299.8,133.3z"/></g><g><path class="st1" d="M299.8,455.3c-1.4,0-2.5-1.1-2.5-2.5s1.1-2.5,2.5-2.5c32.7,0,63.8-10.4,89.8-30c1.1-0.8,2.7-0.6,3.5,0.5    c0.8,1.1,0.6,2.7-0.5,3.5C365.7,444.6,333.6,455.3,299.8,455.3z"/></g><g><path class="st1" d="M419,397.7c-0.5,0-1.1-0.2-1.6-0.5c-1.1-0.9-1.3-2.4-0.4-3.5c21.1-26.6,32.3-58.7,32.3-92.8    c0-31.9-9.9-62.3-28.7-88c-0.8-1.1-0.6-2.7,0.5-3.5c1.1-0.8,2.7-0.6,3.5,0.5c19.4,26.6,29.6,58,29.6,91    c0,35.2-11.5,68.4-33.4,95.9C420.5,397.3,419.8,397.7,419,397.7z"/></g><g><path class="st1" d="M217.5,175.4c-0.8,0-1.6-0.4-2.1-1.1c-0.7-1.2-0.4-2.7,0.7-3.5c24.9-16.1,53.9-24.6,83.7-24.6    c19.9,0,39.3,3.7,57.6,11.1c1.3,0.5,1.9,2,1.4,3.3c-0.5,1.3-2,1.9-3.3,1.4c-17.7-7.1-36.5-10.7-55.7-10.7    c-28.9,0-56.9,8.2-81,23.8C218.4,175.3,217.9,175.4,217.5,175.4z"/></g><g><circle class="st8" cx="299.8" cy="300.8" r="123.3"/><path class="st1" d="M299.8,429.1c-70.8,0-128.3-57.6-128.3-128.3s57.6-128.3,128.3-128.3c70.8,0,128.3,57.6,128.3,128.3    S370.6,429.1,299.8,429.1z M299.8,182.5c-65.2,0-118.3,53.1-118.3,118.3c0,65.2,53.1,118.3,118.3,118.3S418.1,366,418.1,300.8    C418.1,235.5,365.1,182.5,299.8,182.5z"/></g><g><path class="st1" d="M299.8,407.5c-25.2,0-49.6-8.9-68.8-25.1c-1.1-0.9-1.2-2.5-0.3-3.5c0.9-1.1,2.5-1.2,3.5-0.3    c18.3,15.5,41.6,24,65.6,24c22.4,0,43.7-7.1,61.5-20.7c17.2-13.1,30.1-31.7,36.1-52.3c2.7-9.3,4.1-18.9,4.1-28.7    c0-1.4,1.1-2.5,2.5-2.5s2.5,1.1,2.5,2.5c0,10.2-1.4,20.4-4.3,30.1c-6.4,21.7-19.8,41.2-37.9,54.9    C345.6,400,323.3,407.5,299.8,407.5z"/></g><g><path class="st1" d="M384.5,242.6c-0.8,0-1.5-0.4-2-1c-13.5-18.9-33.3-32.6-55.5-38.8c-1.3-0.4-2.1-1.7-1.7-3.1    c0.4-1.3,1.7-2.1,3.1-1.7c23.4,6.5,44,20.9,58.3,40.7c0.8,1.1,0.5,2.7-0.6,3.5C385.5,242.4,385,242.6,384.5,242.6z"/></g><g><circle class="st24" cx="299.8" cy="300.8" r="75.3"/><path class="st1" d="M299.8,381.1c-44.3,0-80.3-36-80.3-80.3s36-80.3,80.3-80.3c44.3,0,80.3,36,80.3,80.3S344.1,381.1,299.8,381.1    z M299.8,230.4c-38.8,0-70.3,31.5-70.3,70.3s31.5,70.3,70.3,70.3c38.8,0,70.3-31.5,70.3-70.3S338.6,230.4,299.8,230.4z"/></g><g><path class="st1" d="M299.8,362c-1.4,0-2.5-1.1-2.5-2.5s1.1-2.5,2.5-2.5c31,0,56.3-25.2,56.3-56.3c0-1.4,1.1-2.5,2.5-2.5    s2.5,1.1,2.5,2.5C361.1,334.6,333.6,362,299.8,362z"/></g><g><path class="st1" d="M348.5,270.4c-0.8,0-1.6-0.4-2.1-1.1c-5.1-7.5-12-13.8-20-18.1c-1.2-0.7-1.7-2.2-1-3.4c0.7-1.2,2.2-1.7,3.4-1    c8.7,4.7,16.2,11.5,21.8,19.7c0.8,1.1,0.5,2.7-0.7,3.5C349.5,270.2,349,270.4,348.5,270.4z"/></g><g><circle class="st30" cx="299.8" cy="300.8" r="35.4"/><path class="st1" d="M299.8,341.1c-22.3,0-40.4-18.1-40.4-40.4s18.1-40.4,40.4-40.4s40.4,18.1,40.4,40.4S322.1,341.1,299.8,341.1z     M299.8,270.4c-16.7,0-30.4,13.6-30.4,30.4c0,16.7,13.6,30.4,30.4,30.4s30.4-13.6,30.4-30.4C330.2,284,316.6,270.4,299.8,270.4z"/></g><g><g><path class="st31" d="M524.5,308H307c-4,0-7.2-3.2-7.2-7.2c0-4,3.2-7.2,7.2-7.2h217.5c4,0,7.2,3.2,7.2,7.2     C531.6,304.7,528.4,308,524.5,308z"/><path class="st1" d="M524.5,310.5H307c-5.3,0-9.7-4.3-9.7-9.7s4.3-9.7,9.7-9.7h217.5c5.3,0,9.7,4.3,9.7,9.7     S529.8,310.5,524.5,310.5z M307,296.1c-2.6,0-4.7,2.1-4.7,4.7c0,2.6,2.1,4.7,4.7,4.7h217.5c2.6,0,4.7-2.1,4.7-4.7     c0-2.6-2.1-4.7-4.7-4.7H307z"/></g></g><g><path class="st23" d="M517.1,293.6h-48.6c-2.4,0-3.5-2.9-1.8-4.5l21.8-20.1c0.5-0.4,1.1-0.7,1.8-0.7h48.6c2.4,0,3.5,2.9,1.8,4.5    l-21.8,20.1C518.4,293.3,517.8,293.6,517.1,293.6z"/><path class="st1" d="M517.1,296.1h-48.6c-2.1,0-4-1.3-4.8-3.2s-0.3-4.2,1.3-5.6l21.8-20.1c0.9-0.9,2.2-1.4,3.5-1.4h48.6    c2.1,0,4,1.3,4.8,3.2s0.3,4.2-1.3,5.6l-21.8,20.1C519.7,295.6,518.4,296.1,517.1,296.1z M490.3,270.8l-21.8,20.1    c0,0-0.1,0.1,0,0.1c0,0.1,0,0.1,0.1,0.1h48.6c0,0,0.1,0,0.1,0L539,271c0,0,0.1-0.1,0-0.1c0-0.1,0-0.1-0.1-0.1H490.3z"/></g><g><path class="st23" d="M517.1,308h-48.6c-2.4,0-3.5,2.9-1.8,4.5l21.8,20.1c0.5,0.4,1.1,0.7,1.8,0.7h48.6c2.4,0,3.5-2.9,1.8-4.5    l-21.8-20.1C518.4,308.2,517.8,308,517.1,308z"/><path class="st1" d="M538.9,335.7h-48.6c-1.3,0-2.5-0.5-3.5-1.4l-21.8-20.1c-1.6-1.4-2.1-3.6-1.3-5.6s2.6-3.2,4.8-3.2h48.6    c1.3,0,2.5,0.5,3.5,1.4l21.8,20.1c1.6,1.4,2.1,3.6,1.3,5.6C542.9,334.4,541,335.7,538.9,335.7z M468.6,310.5c-0.1,0-0.1,0-0.1,0.1    c0,0.1,0,0.1,0,0.1l21.8,20.1l48.7,0c0.1,0,0.1,0,0.1-0.1c0-0.1,0-0.1,0-0.1l-21.8-20.1H468.6z"/></g><g><path class="st1" d="M477.4,304.2H375.1c-1.4,0-2.5-1.1-2.5-2.5c0-1.4,1.1-2.5,2.5-2.5h102.2c1.4,0,2.5,1.1,2.5,2.5    C479.9,303.1,478.8,304.2,477.4,304.2z"/></g><g><path class="st1" d="M516.6,289.2h-25.3c-1.4,0-2.5-1.1-2.5-2.5s1.1-2.5,2.5-2.5h23.3l9.8-9c1-0.9,2.6-0.9,3.5,0.1    c0.9,1,0.9,2.6-0.1,3.5L516.6,289.2z"/></g><g><path class="st1" d="M514.7,316.8h-23.4c-1.4,0-2.5-1.1-2.5-2.5s1.1-2.5,2.5-2.5h23.4c1.4,0,2.5,1.1,2.5,2.5    S516.1,316.8,514.7,316.8z"/></g></g></svg>